<?xml version="1.0" encoding="utf-8"?>
<!-- Generator: Adobe Illustrator 28.1.0, SVG Export Plug-In . SVG Version: 6.00 Build 0)  -->
<svg version="1.1" id="Camada_1" xmlns="http://www.w3.org/2000/svg" xmlns:xlink="http://www.w3.org/1999/xlink" x="0px" y="0px"
	 viewBox="0 0 250 100" style="enable-background:new 0 0 250 100;" xml:space="preserve">
<style type="text/css">
	.st0{opacity:0.95;}
</style>
<g class="st0">
	<path d="M58.26,37.74h-15v-4.61c0-2.15-0.19-3.52-0.58-4.11c-0.38-0.59-1.02-0.88-1.92-0.88c-0.97,0-1.71,0.4-2.21,1.19
		c-0.5,0.79-0.75,2-0.75,3.61c0,2.07,0.28,3.64,0.84,4.69c0.54,1.05,2.06,2.32,4.57,3.8c7.19,4.27,11.72,7.77,13.59,10.51
		c1.87,2.74,2.8,7.15,2.8,13.24c0,4.43-0.52,7.69-1.55,9.79c-1.04,2.1-3.04,3.86-6.01,5.28c-2.97,1.42-6.42,2.13-10.36,2.13
		c-4.32,0-8.01-0.82-11.07-2.46c-3.06-1.64-5.06-3.72-6.01-6.26c-0.95-2.53-1.42-6.13-1.42-10.78v-4.07h15.01v7.56
		c0,2.33,0.21,3.82,0.63,4.49c0.42,0.67,1.17,1,2.24,1c1.08,0,1.87-0.42,2.4-1.27c0.52-0.84,0.79-2.1,0.79-3.76
		c0-3.66-0.5-6.05-1.5-7.18c-1.02-1.13-3.54-3.01-7.56-5.64c-4.02-2.66-6.68-4.59-7.98-5.79c-1.3-1.2-2.39-2.86-3.24-4.99
		c-0.86-2.12-1.29-4.84-1.29-8.14c0-4.76,0.61-8.24,1.82-10.44c1.21-2.2,3.18-3.92,5.89-5.16c2.71-1.24,5.99-1.86,9.82-1.86
		c4.2,0,7.77,0.68,10.73,2.03s4.91,3.06,5.87,5.12c0.96,2.06,1.44,5.56,1.44,10.5V37.74z"/>
	<path d="M100.75,18.93v62.13H86.58l-8.4-28.25v28.25H64.67V18.93h13.51l9.06,27.98V18.93H100.75z"/>
	<path d="M145.74,18.93l-9.27,28.05l10.15,34.08h-16.7l-6.54-26.63v26.63h-16.16V18.93h16.16v24.14l7.19-24.14H145.74z"/>
	<path d="M149.41,18.93h11.44c7.62,0,12.79,0.29,15.48,0.88c2.7,0.59,4.9,2.09,6.6,4.51c1.7,2.42,2.55,6.27,2.55,11.57
		c0,4.84-0.6,8.09-1.8,9.75c-1.2,1.66-3.57,2.66-7.1,2.99c3.2,0.79,5.35,1.86,6.45,3.18c1.1,1.33,1.79,2.55,2.05,3.66
		c0.27,1.11,0.4,4.18,0.4,9.19v16.39h-15.01V60.42c0-3.33-0.26-5.39-0.79-6.18c-0.52-0.79-1.9-1.19-4.12-1.19v28.01h-16.16V18.93z
		 M165.56,29.56v13.82c1.82,0,3.09-0.25,3.82-0.75c0.73-0.5,1.09-2.12,1.09-4.85v-3.42c0-1.97-0.35-3.26-1.06-3.88
		C168.72,29.87,167.43,29.56,165.56,29.56z"/>
	<path d="M225.97,37.74h-15.01v-4.61c0-2.15-0.19-3.52-0.58-4.11c-0.38-0.59-1.02-0.88-1.92-0.88c-0.97,0-1.71,0.4-2.21,1.19
		c-0.5,0.79-0.75,2-0.75,3.61c0,2.07,0.28,3.64,0.84,4.69c0.54,1.05,2.06,2.32,4.57,3.8c7.19,4.27,11.72,7.77,13.59,10.51
		c1.87,2.74,2.8,7.15,2.8,13.24c0,4.43-0.52,7.69-1.55,9.79c-1.04,2.1-3.04,3.86-6.01,5.28c-2.97,1.42-6.42,2.13-10.36,2.13
		c-4.32,0-8.02-0.82-11.07-2.46c-3.06-1.64-5.06-3.72-6.01-6.26c-0.95-2.53-1.42-6.13-1.42-10.78v-4.07h15v7.56
		c0,2.33,0.21,3.82,0.63,4.49c0.42,0.67,1.17,1,2.25,1s1.87-0.42,2.4-1.27c0.52-0.84,0.79-2.1,0.79-3.76c0-3.66-0.5-6.05-1.5-7.18
		c-1.02-1.13-3.54-3.01-7.56-5.64c-4.02-2.66-6.68-4.59-7.98-5.79c-1.31-1.2-2.39-2.86-3.24-4.99c-0.86-2.12-1.28-4.84-1.28-8.14
		c0-4.76,0.61-8.24,1.82-10.44c1.22-2.2,3.18-3.92,5.89-5.16c2.71-1.24,5.99-1.86,9.82-1.86c4.2,0,7.77,0.68,10.73,2.03
		c2.96,1.36,4.91,3.06,5.87,5.12c0.96,2.06,1.44,5.56,1.44,10.5V37.74z"/>
</g>
</svg>
